<svg width="20" height="20" viewBox="0 0 20 20" xmlns="http://www.w3.org/2000/svg"><title>?</title><g fill="none" fill-rule="evenodd"><path d="M10.827 11.324c0-1.023 1.936-1.87 1.936-3.399C12.763 6.528 11.52 6 10.134 6c-.825 0-1.562.231-2.134.539v1.452c.495-.286 1.177-.539 1.859-.539.726 0 1.254.209 1.254.825 0 .847-1.738 1.65-1.738 3.047h1.452zm.209 1.771c0-.616-.429-.902-.924-.902-.495 0-.935.286-.935.902 0 .616.44.902.935.902.495 0 .924-.286.924-.902z" fill="#000"/><circle cx="9" cy="9" r="9" stroke="#9A5252" opacity=".01" transform="translate(1 1)"/></g></svg>