<svg xmlns="http://www.w3.org/2000/svg" width="17" height="15"><path d="M7.295 2.98a.818.818 0 0 0 .415-1.1L7.032.46C6.839.07 6.368-.11 5.953.07 4.777.56 3.766 1.21 2.964 1.99c-.983.92-1.647 1.98-2.007 3.14C.597 6.31.404 7.92.404 9.96v4.22c0 .45.373.82.83.82h5.439c.456 0 .83-.37.83-.82v-5.4c0-.45-.374-.82-.83-.82H4.071c.028-1.39.36-2.5.969-3.34.498-.67 1.245-1.22 2.255-1.64zm9.77 0a.818.818 0 0 0 .415-1.1l-.678-1.4c-.193-.4-.664-.58-1.079-.4a9.93 9.93 0 0 0-2.975 1.91c-.983.93-1.661 1.99-2.021 3.16-.36 1.15-.539 2.75-.539 4.81v4.22c0 .45.373.82.83.82h5.438c.457 0 .831-.37.831-.82v-5.4c0-.45-.374-.82-.831-.82h-2.615c.028-1.39.36-2.5.969-3.34.498-.67 1.245-1.22 2.255-1.64z" fill="#fff"/></svg>