<svg xmlns="http://www.w3.org/2000/svg" width="17" height="15"><path d="M10.33 12.22c-.43.18-.61.69-.42 1.1l.68 1.41c.19.4.66.58 1.07.4 1.17-.49 2.17-1.14 2.97-1.92.97-.92 1.63-1.98 1.99-3.14.36-1.18.55-2.79.55-4.84V1.02c0-.45-.37-.82-.83-.82h-5.39c-.46 0-.83.37-.83.82v5.39c0 .46.37.83.83.83h2.58c-.03 1.38-.36 2.5-.96 3.33-.5.68-1.24 1.23-2.24 1.65zm-9.7 0a.81.81 0 0 0-.41 1.1l.67 1.4c.19.4.66.58 1.07.4 1.15-.5 2.14-1.14 2.95-1.91.98-.93 1.65-1.99 2.01-3.16.36-1.15.54-2.76.54-4.82V1.02c0-.45-.38-.82-.83-.82h-5.4C.78.2.41.57.41 1.02v5.39c0 .46.37.83.82.83h2.6c-.03 1.38-.36 2.5-.96 3.33-.5.68-1.24 1.23-2.24 1.65z" fill="#fff"/></svg>