<svg width="71" height="10" viewBox="0 0 71 10" xmlns="http://www.w3.org/2000/svg"><title>i--stars-4</title><g fill-rule="nonzero" fill="#FFD108"><path d="M8.77 10a.332.332 0 0 1-.167-.04L5.89 8.47 3.177 9.96a.364.364 0 0 1-.376-.03.387.387 0 0 1-.142-.37l.518-3.15L.982 4.17a.374.374 0 0 1 .198-.63l3.034-.46L5.57.21c.06-.13.184-.21.32-.21s.261.08.321.21l1.356 2.87 3.034.46a.374.374 0 0 1 .198.63L8.604 6.41l.518 3.15a.387.387 0 0 1-.142.37.33.33 0 0 1-.21.07zM23.77 10a.332.332 0 0 1-.167-.04L20.89 8.47l-2.713 1.49a.364.364 0 0 1-.376-.03.387.387 0 0 1-.142-.37l.518-3.15-2.195-2.24a.374.374 0 0 1 .198-.63l3.034-.46L20.57.21c.06-.13.184-.21.32-.21s.261.08.321.21l1.356 2.87 3.034.46a.374.374 0 0 1 .198.63l-2.195 2.24.518 3.15a.387.387 0 0 1-.142.37.33.33 0 0 1-.21.07zM38.77 10a.332.332 0 0 1-.167-.04L35.89 8.47l-2.713 1.49a.364.364 0 0 1-.376-.03.387.387 0 0 1-.142-.37l.518-3.15-2.195-2.24a.374.374 0 0 1 .198-.63l3.034-.46L35.57.21c.06-.13.184-.21.32-.21s.261.08.321.21l1.356 2.87 3.034.46a.374.374 0 0 1 .198.63l-2.195 2.24.518 3.15a.387.387 0 0 1-.142.37.33.33 0 0 1-.21.07zM53.77 10a.332.332 0 0 1-.167-.04L50.89 8.47l-2.713 1.49a.364.364 0 0 1-.376-.03.387.387 0 0 1-.142-.37l.518-3.15-2.195-2.24a.374.374 0 0 1 .198-.63l3.034-.46L50.57.21c.06-.13.184-.21.32-.21s.261.08.321.21l1.356 2.87 3.034.46a.374.374 0 0 1 .198.63l-2.195 2.24.518 3.15a.387.387 0 0 1-.142.37.33.33 0 0 1-.21.07z"/><path d="M68.77 10a.332.332 0 0 1-.167-.04L65.89 8.47l-2.713 1.49a.364.364 0 0 1-.376-.03.387.387 0 0 1-.142-.37l.518-3.15-2.195-2.24a.374.374 0 0 1 .198-.63l3.034-.46L65.57.21c.06-.13.184-.21.32-.21s.261.08.321.21l1.356 2.87 3.034.46a.374.374 0 0 1 .198.63l-2.195 2.24.518 3.15a.387.387 0 0 1-.142.37.33.33 0 0 1-.21.07z" opacity=".15"/><path d="M8.77 10a.332.332 0 0 1-.167-.04L5.89 8.47 3.177 9.96a.364.364 0 0 1-.376-.03.387.387 0 0 1-.142-.37l.518-3.15L.982 4.17a.374.374 0 0 1 .198-.63l3.034-.46L5.57.21c.06-.13.184-.21.32-.21s.261.08.321.21l1.356 2.87 3.034.46a.374.374 0 0 1 .198.63L8.604 6.41l.518 3.15a.387.387 0 0 1-.142.37.33.33 0 0 1-.21.07zM23.77 10a.332.332 0 0 1-.167-.04L20.89 8.47l-2.713 1.49a.364.364 0 0 1-.376-.03.387.387 0 0 1-.142-.37l.518-3.15-2.195-2.24a.374.374 0 0 1 .198-.63l3.034-.46L20.57.21c.06-.13.184-.21.32-.21s.261.08.321.21l1.356 2.87 3.034.46a.374.374 0 0 1 .198.63l-2.195 2.24.518 3.15a.387.387 0 0 1-.142.37.33.33 0 0 1-.21.07zM38.77 10a.332.332 0 0 1-.167-.04L35.89 8.47l-2.713 1.49a.364.364 0 0 1-.376-.03.387.387 0 0 1-.142-.37l.518-3.15-2.195-2.24a.374.374 0 0 1 .198-.63l3.034-.46L35.57.21c.06-.13.184-.21.32-.21s.261.08.321.21l1.356 2.87 3.034.46a.374.374 0 0 1 .198.63l-2.195 2.24.518 3.15a.387.387 0 0 1-.142.37.33.33 0 0 1-.21.07zM53.77 10a.332.332 0 0 1-.167-.04L50.89 8.47l-2.713 1.49a.364.364 0 0 1-.376-.03.387.387 0 0 1-.142-.37l.518-3.15-2.195-2.24a.374.374 0 0 1 .198-.63l3.034-.46L50.57.21c.06-.13.184-.21.32-.21s.261.08.321.21l1.356 2.87 3.034.46a.374.374 0 0 1 .198.63l-2.195 2.24.518 3.15a.387.387 0 0 1-.142.37.33.33 0 0 1-.21.07z"/></g></svg>