<svg width="16" height="11" viewBox="0 0 16 11" xmlns="http://www.w3.org/2000/svg"><title>i-behance</title><path d="M6.96 5.17c.31-.17.55-.36.71-.57.29-.37.43-.86.43-1.47 0-.59-.14-1.1-.43-1.53C7.2.91 6.39.56 5.26.54H.75v9.99h4.2c.47 0 .91-.04 1.32-.13.4-.09.76-.26 1.05-.51.27-.21.49-.47.66-.78.28-.47.42-1 .42-1.59 0-.58-.12-1.07-.37-1.47-.24-.4-.6-.69-1.07-.88zm8.2-.9c-.3-.49-.69-.84-1.16-1.06-.46-.23-.99-.34-1.57-.34-.98 0-1.77.33-2.39 1-.61.66-.92 1.61-.92 2.85 0 1.32.34 2.28 1.02 2.86.68.59 1.46.89 2.36.89 1.07 0 1.91-.35 2.51-1.05.39-.44.6-.87.65-1.29h-1.79c-.1.21-.22.37-.36.49-.25.22-.57.33-.97.33-.37 0-.69-.09-.96-.27-.44-.29-.67-.79-.7-1.51h4.87c.01-.62-.01-1.1-.06-1.42-.08-.56-.26-1.06-.53-1.48zM5.82 8.62c-.23.12-.54.18-.95.18H2.9V6.13h2c.4.01.72.06.94.17.39.2.59.55.59 1.07 0 .62-.2 1.03-.61 1.25zM2.9 2.28h1.74c.44 0 .81.05 1.1.15.33.15.5.46.5.92 0 .42-.13.72-.38.88-.25.17-.58.25-.98.25H2.9v-2.2zm11.4-.33v-1h-3.76v1h3.76zm-.36 3.98h-3.02c.07-.46.22-.83.47-1.1.25-.28.59-.41 1.04-.41.42 0 .76.12 1.04.38s.43.64.47 1.13z" fill-rule="nonzero" fill="#FFF"/></svg>