<svg xmlns="http://www.w3.org/2000/svg" width="24" height="24"><path d="M22.537-.01H1.463C.649-.01-.013.65-.013 1.46v21.08c0 .81.662 1.47 1.476 1.47h21.074c.814 0 1.476-.66 1.476-1.47V1.46c0-.81-.662-1.47-1.476-1.47zM1.988 22.01V9.68h20.019v12.33zm0-14.33V1.99h20.019v5.69zm7.889 12.66c.647.29 1.162-.11 1.334-.47l3.388-7.19a.998.998 0 0 0-.481-1.33.992.992 0 0 0-1.334.48l-3.383 7.18c-.24.5-.029 1.11.476 1.33zm5.349-6.61l2.462 2.12-2.462 2.12a.722.722 0 0 0 0 1.13c.481.42 1.103.19 1.319 0l3.124-2.68c.362-.32.362-.83 0-1.14l-3.124-2.69a1.052 1.052 0 0 0-1.319 0c-.363.32-.363.83 0 1.14zm-1.932-7.89h.564c.554 0 1.001-.45 1.001-1 0-.56-.447-1.01-1.001-1.01h-.564c-.554 0-1 .45-1 1.01a1 1 0 0 0 1 1zm4.614 0h.564a1 1 0 0 0 1-1c0-.56-.446-1.01-1-1.01h-.564c-.554 0-1 .45-1 1.01 0 .55.451 1 1 1zM4.331 16.41l3.124 2.69c.362.31.956.31 1.319 0 .362-.32.362-.82 0-1.14l-2.462-2.11 2.462-2.12c.362-.31.362-.82 0-1.14-.481-.41-1.104-.19-1.319 0l-3.124 2.69a.716.716 0 0 0 0 1.13z"/></svg>