<svg xmlns="http://www.w3.org/2000/svg" width="13" height="10"><path d="M11.205 9.5c.285 0 .532-.1.742-.28L8.356 5.61c-.086.06-.169.12-.248.18-.269.2-.487.36-.655.47-.167.11-.39.22-.668.34a2.14 2.14 0 0 1-.778.17h-.014c-.241 0-.5-.06-.778-.17a4.547 4.547 0 0 1-.669-.34c-.167-.11-.385-.27-.654-.47a4.231 4.231 0 0 1-.248-.18L.053 9.22c.209.18.457.28.741.28zM.377 3.34a3.484 3.484 0 0 1-.714-.62v5.49l3.165-3.18c-.633-.44-1.449-1-2.451-1.69zm11.253 0c-.964.66-1.782 1.22-2.457 1.69l3.164 3.18V2.72c-.203.23-.438.44-.707.62zM11.205-.5H.794c-.363 0-.642.12-.838.37-.196.25-.293.55-.293.92 0 .3.13.62.389.97s.535.62.827.82c.161.12.644.45 1.45 1.01.436.31.814.57 1.139.8.278.19.517.36.714.5.023.02.059.04.106.08.051.03.115.08.195.14.153.11.281.2.382.27.101.07.224.14.368.23.144.08.279.15.406.19.128.04.246.06.354.06h.014c.109 0 .226-.02.354-.06.127-.04.263-.11.407-.19.143-.09.266-.16.367-.23.102-.07.229-.16.382-.27.08-.06.144-.11.195-.14.048-.04.083-.06.106-.08.154-.11.393-.27.716-.5.586-.41 1.45-1.01 2.594-1.81.344-.24.632-.53.863-.87.231-.34.346-.7.346-1.07 0-.32-.112-.58-.336-.81a1.097 1.097 0 0 0-.796-.33z" fill="#fff"/></svg>