<svg xmlns="http://www.w3.org/2000/svg" width="24" height="24"><path d="M6 10c-1.11 0-2 .89-2 2a2 2 0 1 0 2-2zM4 2.99c-.56 0-1 .45-1 1.01 0 .55.44 1 1 1a1.005 1.005 0 0 0 0-2.01zm3 0c-.56 0-1 .45-1 1.01 0 .55.44 1 1 1a1.005 1.005 0 0 0 0-2.01zm3 0A1.005 1.005 0 0 0 10 5a1.005 1.005 0 0 0 0-2.01zm13.01-3H.99c-.55 0-1 .45-1 1V23c0 .04.01.07.01.1v.05c.01.02.01.03.01.05.01.02.01.03.02.05 0 .02 0 .03.01.05 0 .01.01.03.01.04.01.02.01.03.02.05.01.01.01.03.02.04.01.02.01.03.02.05.01.01.02.02.03.04 0 .01.01.03.02.04.01.02.02.03.03.04.01.02.02.03.03.04.02.02.04.05.07.07.02.03.04.05.07.07.01.01.02.02.04.03.01.01.02.02.04.03.01.01.03.01.04.02.02.01.03.02.04.03.02.01.03.01.05.02.01.01.03.01.04.02.02.01.03.01.05.02.01 0 .03.01.04.01.02.01.03.01.05.01.02.01.03.01.05.02h.05c.02.01.03.01.05.01.03 0 .06.01.09.01h22.02c.55 0 1-.45 1-1.01V.99c0-.55-.45-1-1-1zm-4.3 11.3a.996.996 0 0 0-1.41 0l-5.3 5.3-2.29-2.3c-.39-.39-1.03-.39-1.42 0l-6.3 6.3V8h20.02v6.59zM22.01 22H3.41L9 16.42l3.29 3.29c.39.39 1.03.39 1.42 0a.996.996 0 0 0 0-1.41l-.3-.3L18 13.41l4.01 4.01zM1.99 6V1.99h20.02V6z"/></svg>