<svg xmlns="http://www.w3.org/2000/svg" width="24" height="24"><path d="M23.001 0H.999A.994.994 0 0 0 0 1v22a1 1 0 0 0 .999 1h22.002A1 1 0 0 0 24 23V1c0-.56-.446-1-.999-1zM1.998 22L2 8h20l-.003 14zM16.913 2l-2.911 3.997L14 6c-.005.003-.005.002-.003 0H8l3-4zM1.998 2H7.91L5.002 5.997 5 6c-.005.003-.005.002-.003 0H2zM22 6h-5l3-4h2zM9.909 19.85l5.422-4.32a.997.997 0 0 0 0-1.56L9.913 9.65a.99.99 0 0 0-1.058-.11.99.99 0 0 0-.563.9v8.62c0 .38.216.74.563.9.138.07.289.1.436.1.221 0 .441-.07.618-.21zm3.198-5.1l-2.816 2.23v-4.47z"/></svg>