<svg xmlns="http://www.w3.org/2000/svg" width="24" height="24"><path d="M18.82 23.8l-6.32-3.49-6.32 3.49a.991.991 0 0 1-1.47-1.02l1.22-7.48-5.16-5.29C.51 9.75.43 9.36.54 9c.12-.35.43-.61.8-.66l7.08-1.09L11.6.48c.16-.34.51-.57.9-.57.38 0 .74.23.9.57l3.18 6.77 7.08 1.09c.37.06.67.31.8.66.11.36.03.75-.23 1.01l-5.16 5.29 1.22 7.48a.992.992 0 0 1-1.47 1.02zM3.56 10.01l4.15 4.26c.22.23.32.54.27.85l-.97 5.94 5-2.76c.3-.17.66-.17.97 0l5 2.76-.97-5.94c-.05-.31.05-.62.27-.85l4.15-4.26-5.69-.86a.995.995 0 0 1-.76-.57L12.5 3.26 10 8.58c-.14.3-.42.51-.75.56z"/></svg>