<svg width="26" height="25" viewBox="0 0 26 25" xmlns="http://www.w3.org/2000/svg"><title>i-tweaks--black</title><path d="M1.201 4.48h4.228a3.185 3.185 0 0 0 3.074 2.37 3.186 3.186 0 0 0 3.074-2.37h13.222c.446 0 .808-.37.808-.81 0-.45-.362-.81-.808-.81H11.577A3.186 3.186 0 0 0 8.503.49a3.188 3.188 0 0 0-3.075 2.37H1.201a.807.807 0 0 0-.808.81c0 .44.362.81.808.81zm23.598 7.21h-5.387a3.185 3.185 0 0 0-3.074-2.37 3.185 3.185 0 0 0-3.074 2.37H1.201a.807.807 0 0 0-.808.81c0 .45.362.81.808.81h12.063a3.186 3.186 0 0 0 3.074 2.37 3.185 3.185 0 0 0 3.074-2.37h5.387c.446 0 .808-.36.808-.81 0-.45-.362-.81-.808-.81zm-8.461 2.37c-.861 0-1.562-.7-1.562-1.56a1.563 1.563 0 0 1 3.125 0c0 .86-.701 1.56-1.563 1.56zM8.503 2.11c.861 0 1.562.7 1.562 1.56a1.563 1.563 0 0 1-3.125 0c0-.86.701-1.56 1.563-1.56zm16.296 18.41H11.577a3.186 3.186 0 0 0-3.074-2.37 3.188 3.188 0 0 0-3.075 2.37H1.201a.807.807 0 0 0-.808.81c0 .45.362.81.808.81h4.228a3.185 3.185 0 0 0 3.074 2.37 3.186 3.186 0 0 0 3.074-2.37h13.222c.446 0 .808-.36.808-.81 0-.45-.362-.81-.808-.81zM8.503 22.89c-.862 0-1.563-.7-1.563-1.56a1.563 1.563 0 0 1 3.125 0c0 .86-.701 1.56-1.562 1.56z" fill-rule="nonzero" fill="#000"/></svg>