<svg width="12" height="10" viewBox="0 0 12 10" xmlns="http://www.w3.org/2000/svg"><title>i-twitter</title><path d="M9.995 1.81c.48-.29.848-.75 1.022-1.3-.45.27-.947.46-1.477.57A2.305 2.305 0 0 0 7.843.33c-1.284 0-2.325 1.06-2.325 2.36 0 .18.021.36.06.54A6.572 6.572 0 0 1 .786.76c-.2.35-.314.76-.314 1.19 0 .82.411 1.54 1.034 1.96-.381-.01-.74-.12-1.053-.3v.03c0 1.15.801 2.1 1.865 2.32-.195.05-.4.08-.612.08-.15 0-.296-.02-.438-.04A2.335 2.335 0 0 0 3.44 7.63 4.64 4.64 0 0 1 .552 8.64c-.187 0-.373-.01-.555-.03a6.508 6.508 0 0 0 3.565 1.06c4.276 0 6.614-3.59 6.614-6.71 0-.1-.002-.2-.006-.3.454-.33.848-.75 1.16-1.22-.417.18-.865.31-1.335.37z" fill-rule="nonzero" fill="#FFF"/></svg>